<svg xmlns="http://www.w3.org/2000/svg" viewBox="0 0 16 16"><path stroke="white" d="M13.4 4a5 5 0 00-9.5-1A3.5 3.5 0 103.5 10H13a3 3 0 00.4-6M8.5 1a4 4 0 014 3.6.5.5 0 00.5.4H13a2 2 0 010 4H3.5a2.5 2.5 0 11.6-4.9.5.5 0 00.6-.3A4 4 0 018.5 1M2.4 13.5a.3.3 0 01.3.3v.6l.5-.3a.3.3 0 01.2.4l-.5.3.5.3a.3.3 0 01-.2.4l-.5-.3v.6a.3.3 0 11-.5 0v-.6l-.5.3a.3.3 0 01-.2-.4l.5-.3-.5-.3a.3.3 0 01.2-.4l.5.3v-.6a.3.3 0 01.3-.3m1.8-2.4a.5.5 0 01.2.7l-.5 1a.5.5 0 11-.9-.4l.5-1a.5.5 0 01.7-.2zM6.4 13.5a.3.3 0 01.3.3v.6l.5-.3a.3.3 0 01.2.4l-.5.3.5.3a.3.3 0 01-.2.4l-.5-.3v.6a.3.3 0 11-.5 0v-.6l-.5.3a.3.3 0 01-.2-.4l.5-.3-.5-.3a.3.3 0 01.2-.4l.5.3v-.6a.3.3 0 01.3-.3m1.8-2.4a.5.5 0 01.2.7l-.5 1a.5.5 0 11-.9-.4l.5-1a.5.5 0 01.7-.2zm2.2 2.4a.3.3 0 01.3.3v.6l.5-.3a.3.3 0 01.2.4l-.5.3.5.3a.3.3 0 01-.2.4l-.5-.3v.6a.3.3 0 11-.5 0v-.6l-.5.3a.3.3 0 01-.2-.4l.5-.3-.5-.3a.3.3 0 01.2-.4l.5.3v-.6a.3.3 0 01.3-.3m1.8-2.4a.5.5 0 01.2.7l-.5 1a.5.5 0 11-.9-.4l.5-1a.5.5 0 01.7-.2z"/></svg>
